<svg xmlns="http://www.w3.org/2000/svg" width="24" height="24" viewBox="0 0 24 24">
  <rect width="24" height="24" fill="#FFB627" rx="4"/>
  <g transform="translate(2, 2)" stroke="white" stroke-width="2" stroke-linecap="round" stroke-linejoin="round" fill="none">
    <line x1="4" y1="9" x2="8" y2="9"></line>
    <line x1="6" y1="7" x2="6" y2="11"></line>
    <line x1="13" y1="10" x2="13.01" y2="10"></line>
    <line x1="16" y1="8" x2="16.01" y2="8"></line>
    <path d="M15.32 3H4.68a4 4 0 0 0-3.978 3.59c-.006.052-.01.101-.017.152C.604 7.416 0 12.456 0 14a3 3 0 0 0 3 3c1 0 1.5-.5 2-1l1.414-1.414A2 2 0 0 1 7.828 14h4.344a2 2 0 0 1 1.414.586L15 16c.5.5 1 1 2 1a3 3 0 0 0 3-3c0-1.544-.604-6.584-.685-7.258-.007-.05-.011-.1-.017-.152A4 4 0 0 0 15.32 3z"></path>
  </g>
</svg>